  0
SECTION
  2
BLOCKS
  0
ENDSEC
  0
SECTION
  2
ENTITIES
  0
LINE
  8
0
 10
110
 20
0
 11
107.596
 21
22.8703
  0
LINE
  8
0
 10
107.596
 20
22.8703
 11
100.49
 21
44.741
  0
LINE
  8
0
 10
100.49
 20
44.741
 11
88.9919
 21
64.6564
  0
LINE
  8
0
 10
88.9919
 20
64.6564
 11
73.6044
 21
81.7459
  0
LINE
  8
0
 10
73.6044
 20
81.7459
 11
55
 21
95.2628
  0
LINE
  8
0
 10
55
 20
95.2628
 11
33.9919
 21
104.616
  0
LINE
  8
0
 10
33.9919
 20
104.616
 11
11.4981
 21
109.397
  0
LINE
  8
0
 10
11.4981
 20
109.397
 11
-11.4981
 21
109.397
  0
LINE
  8
0
 10
-11.4981
 20
109.397
 11
-33.9919
 21
104.616
  0
LINE
  8
0
 10
-33.9919
 20
104.616
 11
-55
 21
95.2628
  0
LINE
  8
0
 10
-55
 20
95.2628
 11
-73.6044
 21
81.7459
  0
LINE
  8
0
 10
-73.6044
 20
81.7459
 11
-88.9919
 21
64.6564
  0
LINE
  8
0
 10
-88.9919
 20
64.6564
 11
-100.49
 21
44.741
  0
LINE
  8
0
 10
-100.49
 20
44.741
 11
-107.596
 21
22.8703
  0
LINE
  8
0
 10
-107.596
 20
22.8703
 11
-110
 21
-0
  0
LINE
  8
0
 10
-110
 20
-0
 11
-107.596
 21
-22.8703
  0
LINE
  8
0
 10
-107.596
 20
-22.8703
 11
-100.49
 21
-44.741
  0
LINE
  8
0
 10
-100.49
 20
-44.741
 11
-88.9919
 21
-64.6564
  0
LINE
  8
0
 10
-88.9919
 20
-64.6564
 11
-73.6044
 21
-81.7459
  0
LINE
  8
0
 10
-73.6044
 20
-81.7459
 11
-55
 21
-95.2628
  0
LINE
  8
0
 10
-55
 20
-95.2628
 11
-33.9919
 21
-104.616
  0
LINE
  8
0
 10
-33.9919
 20
-104.616
 11
-11.4981
 21
-109.397
  0
LINE
  8
0
 10
-11.4981
 20
-109.397
 11
11.4981
 21
-109.397
  0
LINE
  8
0
 10
11.4981
 20
-109.397
 11
33.9919
 21
-104.616
  0
LINE
  8
0
 10
33.9919
 20
-104.616
 11
55
 21
-95.2628
  0
LINE
  8
0
 10
55
 20
-95.2628
 11
73.6044
 21
-81.7459
  0
LINE
  8
0
 10
73.6044
 20
-81.7459
 11
88.9919
 21
-64.6564
  0
LINE
  8
0
 10
88.9919
 20
-64.6564
 11
100.49
 21
-44.741
  0
LINE
  8
0
 10
100.49
 20
-44.741
 11
107.596
 21
-22.8703
  0
LINE
  8
0
 10
107.596
 20
-22.8703
 11
110
 21
0
  0
ENDSEC
  0
SECTION
  2
OBJECTS
  0
DICTIONARY
  0
ENDSEC
  0
EOF
