  0
SECTION
  2
BLOCKS
  0
ENDSEC
  0
SECTION
  2
ENTITIES
  0
LINE
  8
0
 10
33.9919
 20
-104.616
 11
55
 21
-95.2628
  0
LINE
  8
0
 10
55
 20
-95.2628
 11
73.6044
 21
-81.7459
  0
LINE
  8
0
 10
73.6044
 20
-81.7459
 11
88.9919
 21
-64.6564
  0
LINE
  8
0
 10
88.9919
 20
-64.6564
 11
100.49
 21
-44.741
  0
LINE
  8
0
 10
100.49
 20
-44.741
 11
107.596
 21
-22.8703
  0
LINE
  8
0
 10
107.596
 20
-22.8703
 11
110
 21
0
  0
LINE
  8
0
 10
110
 20
0
 11
107.596
 21
22.8703
  0
LINE
  8
0
 10
107.596
 20
22.8703
 11
100.49
 21
44.741
  0
LINE
  8
0
 10
100.49
 20
44.741
 11
88.9919
 21
64.6564
  0
LINE
  8
0
 10
88.9919
 20
64.6564
 11
73.6044
 21
81.7459
  0
LINE
  8
0
 10
73.6044
 20
81.7459
 11
55
 21
95.2628
  0
LINE
  8
0
 10
55
 20
95.2628
 11
33.9919
 21
104.616
  0
LINE
  8
0
 10
33.9919
 20
104.616
 11
11.4981
 21
109.397
  0
LINE
  8
0
 10
11.4981
 20
109.397
 11
0.0499878
 21
109.397
  0
LINE
  8
0
 10
0.0499878
 20
109.397
 11
0.0499878
 21
89.507
  0
LINE
  8
0
 10
0.0499878
 20
89.507
 11
9.40755
 21
89.507
  0
LINE
  8
0
 10
9.40755
 20
89.507
 11
27.8115
 21
85.5951
  0
LINE
  8
0
 10
27.8115
 20
85.5951
 11
45
 21
77.9423
  0
LINE
  8
0
 10
45
 20
77.9423
 11
60.2217
 21
66.883
  0
LINE
  8
0
 10
60.2217
 20
66.883
 11
72.8115
 21
52.9007
  0
LINE
  8
0
 10
72.8115
 20
52.9007
 11
82.2191
 21
36.6063
  0
LINE
  8
0
 10
82.2191
 20
36.6063
 11
88.0333
 21
18.7121
  0
LINE
  8
0
 10
88.0333
 20
18.7121
 11
90
 21
0
  0
LINE
  8
0
 10
90
 20
0
 11
88.0333
 21
-18.7121
  0
LINE
  8
0
 10
88.0333
 20
-18.7121
 11
82.2191
 21
-36.6063
  0
LINE
  8
0
 10
82.2191
 20
-36.6063
 11
72.8115
 21
-52.9007
  0
LINE
  8
0
 10
72.8115
 20
-52.9007
 11
60.2217
 21
-66.883
  0
LINE
  8
0
 10
60.2217
 20
-66.883
 11
45
 21
-77.9423
  0
LINE
  8
0
 10
45
 20
-77.9423
 11
27.8115
 21
-85.5951
  0
LINE
  8
0
 10
27.8115
 20
-85.5951
 11
9.40755
 21
-89.507
  0
LINE
  8
0
 10
9.40755
 20
-89.507
 11
-9.40755
 21
-89.507
  0
LINE
  8
0
 10
-9.40755
 20
-89.507
 11
-27.8115
 21
-85.5951
  0
LINE
  8
0
 10
-27.8115
 20
-85.5951
 11
-45
 21
-77.9423
  0
LINE
  8
0
 10
-45
 20
-77.9423
 11
-60.2217
 21
-66.883
  0
LINE
  8
0
 10
-60.2217
 20
-66.883
 11
-72.8115
 21
-52.9007
  0
LINE
  8
0
 10
-72.8115
 20
-52.9007
 11
-82.2191
 21
-36.6063
  0
LINE
  8
0
 10
-82.2191
 20
-36.6063
 11
-88.0333
 21
-18.7121
  0
LINE
  8
0
 10
-88.0333
 20
-18.7121
 11
-90
 21
0
  0
LINE
  8
0
 10
-90
 20
0
 11
-88.0333
 21
18.7121
  0
LINE
  8
0
 10
-88.0333
 20
18.7121
 11
-82.2191
 21
36.6063
  0
LINE
  8
0
 10
-82.2191
 20
36.6063
 11
-72.8115
 21
52.9007
  0
LINE
  8
0
 10
-72.8115
 20
52.9007
 11
-60.2217
 21
66.883
  0
LINE
  8
0
 10
-60.2217
 20
66.883
 11
-45
 21
77.9423
  0
LINE
  8
0
 10
-45
 20
77.9423
 11
-27.8115
 21
85.5951
  0
LINE
  8
0
 10
-27.8115
 20
85.5951
 11
-9.40755
 21
89.507
  0
LINE
  8
0
 10
-9.40755
 20
89.507
 11
-0.0499878
 21
89.507
  0
LINE
  8
0
 10
-0.0499878
 20
89.507
 11
-0.0499878
 21
109.397
  0
LINE
  8
0
 10
-0.0499878
 20
109.397
 11
-11.4981
 21
109.397
  0
LINE
  8
0
 10
-11.4981
 20
109.397
 11
-33.9919
 21
104.616
  0
LINE
  8
0
 10
-33.9919
 20
104.616
 11
-55
 21
95.2628
  0
LINE
  8
0
 10
-55
 20
95.2628
 11
-73.6044
 21
81.7459
  0
LINE
  8
0
 10
-73.6044
 20
81.7459
 11
-88.9919
 21
64.6564
  0
LINE
  8
0
 10
-88.9919
 20
64.6564
 11
-100.49
 21
44.741
  0
LINE
  8
0
 10
-100.49
 20
44.741
 11
-107.596
 21
22.8703
  0
LINE
  8
0
 10
-107.596
 20
22.8703
 11
-110
 21
0
  0
LINE
  8
0
 10
-110
 20
0
 11
-107.596
 21
-22.8703
  0
LINE
  8
0
 10
-107.596
 20
-22.8703
 11
-100.49
 21
-44.741
  0
LINE
  8
0
 10
-100.49
 20
-44.741
 11
-88.9919
 21
-64.6564
  0
LINE
  8
0
 10
-88.9919
 20
-64.6564
 11
-73.6044
 21
-81.7459
  0
LINE
  8
0
 10
-73.6044
 20
-81.7459
 11
-55
 21
-95.2628
  0
LINE
  8
0
 10
-55
 20
-95.2628
 11
-33.9919
 21
-104.616
  0
LINE
  8
0
 10
-33.9919
 20
-104.616
 11
-11.4981
 21
-109.397
  0
LINE
  8
0
 10
-11.4981
 20
-109.397
 11
11.4981
 21
-109.397
  0
LINE
  8
0
 10
11.4981
 20
-109.397
 11
33.9919
 21
-104.616
  0
LINE
  8
0
 10
26.2664
 20
-80.8398
 11
42.5
 21
-73.6122
  0
LINE
  8
0
 10
42.5
 20
-73.6122
 11
56.8761
 21
-63.1673
  0
LINE
  8
0
 10
56.8761
 20
-63.1673
 11
68.7664
 21
-49.9617
  0
LINE
  8
0
 10
68.7664
 20
-49.9617
 11
77.6514
 21
-34.5726
  0
LINE
  8
0
 10
77.6514
 20
-34.5726
 11
83.1425
 21
-17.6725
  0
LINE
  8
0
 10
83.1425
 20
-17.6725
 11
85
 21
0
  0
LINE
  8
0
 10
85
 20
0
 11
83.1425
 21
17.6725
  0
LINE
  8
0
 10
83.1425
 20
17.6725
 11
77.6514
 21
34.5726
  0
LINE
  8
0
 10
77.6514
 20
34.5726
 11
68.7664
 21
49.9617
  0
LINE
  8
0
 10
68.7664
 20
49.9617
 11
56.8761
 21
63.1673
  0
LINE
  8
0
 10
56.8761
 20
63.1673
 11
42.5
 21
73.6122
  0
LINE
  8
0
 10
42.5
 20
73.6122
 11
26.2664
 21
80.8398
  0
LINE
  8
0
 10
26.2664
 20
80.8398
 11
8.88492
 21
84.5343
  0
LINE
  8
0
 10
8.88492
 20
84.5343
 11
-8.88492
 21
84.5343
  0
LINE
  8
0
 10
-8.88492
 20
84.5343
 11
-26.2664
 21
80.8398
  0
LINE
  8
0
 10
-26.2664
 20
80.8398
 11
-42.5
 21
73.6122
  0
LINE
  8
0
 10
-42.5
 20
73.6122
 11
-56.8761
 21
63.1673
  0
LINE
  8
0
 10
-56.8761
 20
63.1673
 11
-68.7664
 21
49.9617
  0
LINE
  8
0
 10
-68.7664
 20
49.9617
 11
-77.6514
 21
34.5726
  0
LINE
  8
0
 10
-77.6514
 20
34.5726
 11
-83.1425
 21
17.6725
  0
LINE
  8
0
 10
-83.1425
 20
17.6725
 11
-85
 21
0
  0
LINE
  8
0
 10
-85
 20
0
 11
-83.1425
 21
-17.6725
  0
LINE
  8
0
 10
-83.1425
 20
-17.6725
 11
-77.6514
 21
-34.5726
  0
LINE
  8
0
 10
-77.6514
 20
-34.5726
 11
-68.7664
 21
-49.9617
  0
LINE
  8
0
 10
-68.7664
 20
-49.9617
 11
-56.8761
 21
-63.1673
  0
LINE
  8
0
 10
-56.8761
 20
-63.1673
 11
-42.5
 21
-73.6122
  0
LINE
  8
0
 10
-42.5
 20
-73.6122
 11
-26.2664
 21
-80.8398
  0
LINE
  8
0
 10
-26.2664
 20
-80.8398
 11
-8.88492
 21
-84.5343
  0
LINE
  8
0
 10
-8.88492
 20
-84.5343
 11
8.88492
 21
-84.5343
  0
LINE
  8
0
 10
8.88492
 20
-84.5343
 11
26.2664
 21
-80.8398
  0
ENDSEC
  0
SECTION
  2
OBJECTS
  0
DICTIONARY
  0
ENDSEC
  0
EOF
